<svg width="1024" height="1024" viewBox="0 0 240 240" xmlns="http://www.w3.org/2000/svg">
<defs>
<linearGradient id="tealBg" x1="0" y1="0" x2="0" y2="1">
<stop offset="0%" stop-color="#3FD8B4"/>
<stop offset="100%" stop-color="#1AA486"/>
</linearGradient>
<linearGradient id="gloss" x1="0" y1="0" x2="0" y2="1">
<stop offset="0%" stop-color="white" stop-opacity="0.18"/>
<stop offset="100%" stop-color="white" stop-opacity="0"/>
</linearGradient>
<filter id="creamShadow" x="-30%" y="-30%" width="160%" height="160%">
<feGaussianBlur in="SourceAlpha" stdDeviation="2" result="kB"/>
<feOffset in="kB" dx="0" dy="2" result="kO"/>
<feFlood flood-color="#062520" flood-opacity="0.28" result="kC"/>
<feComposite in="kC" in2="kO" operator="in" result="k"/>
<feGaussianBlur in="SourceAlpha" stdDeviation="6" result="sB"/>
<feOffset in="sB" dx="0" dy="4" result="sO"/>
<feFlood flood-color="#062520" flood-opacity="0.18" result="sC"/>
<feComposite in="sC" in2="sO" operator="in" result="s"/>
<feMerge><feMergeNode in="s"/><feMergeNode in="k"/><feMergeNode in="SourceGraphic"/></feMerge>
</filter>
<filter id="navyShadow" x="-30%" y="-30%" width="160%" height="160%">
<feGaussianBlur in="SourceAlpha" stdDeviation="1.2" result="kB"/>
<feOffset in="kB" dx="0" dy="1.5" result="kO"/>
<feFlood flood-color="#062520" flood-opacity="0.22" result="kC"/>
<feComposite in="kC" in2="kO" operator="in" result="k"/>
<feGaussianBlur in="SourceAlpha" stdDeviation="3.5" result="sB"/>
<feOffset in="sB" dx="0" dy="2.5" result="sO"/>
<feFlood flood-color="#062520" flood-opacity="0.10" result="sC"/>
<feComposite in="sC" in2="sO" operator="in" result="s"/>
<feMerge><feMergeNode in="s"/><feMergeNode in="k"/><feMergeNode in="SourceGraphic"/></feMerge>
</filter>
</defs>

<rect width="240" height="240" fill="url(#tealBg)"/>
<path d="M 53 27 L 187 27 Q 195 27 195 35 L 195 91 L 183 99 L 170 83 L 158 99 L 145 83 L 133 99 L 120 83 L 108 99 L 95 83 L 83 99 L 70 83 L 58 99 L 45 91 L 45 35 Q 45 27 53 27 Z" fill="#0F2A2F" filter="url(#navyShadow)"/>
<path d="M 45 118 L 58 126 L 70 110 L 83 126 L 95 110 L 108 126 L 120 110 L 133 126 L 145 110 L 158 126 L 170 110 L 183 126 L 195 118 L 195 205 Q 195 213 187 213 L 53 213 Q 45 213 45 205 Z" fill="#FFFEF9" filter="url(#creamShadow)"/>
<rect width="240" height="120" fill="url(#gloss)"/>
</svg>
